<?xml version="1.0" standalone="no"?>
<!DOCTYPE svg PUBLIC "-//W3C//DTD SVG 20010904//EN"
 "http://www.w3.org/TR/2001/REC-SVG-20010904/DTD/svg10.dtd">
<svg version="1.0" xmlns="http://www.w3.org/2000/svg"
 width="600.000000pt" height="600.000000pt" viewBox="0 0 600.000000 600.000000"
 preserveAspectRatio="xMidYMid meet">

<g transform="translate(0.000000,600.000000) scale(0.100000,-0.100000)"
fill="#000000" stroke="none">
<path d="M2954 5691 c-76 -132 -142 -237 -146 -235 -4 3 -8 13 -8 22 -1 27
-78 339 -79 317 -1 -11 -5 -72 -10 -135 -6 -63 -15 -189 -22 -280 l-11 -165
-41 -72 c-23 -40 -44 -73 -48 -73 -4 0 -76 132 -160 293 -181 348 -171 329
-164 297 2 -14 12 -68 20 -120 9 -52 27 -158 40 -235 13 -77 34 -196 45 -265
11 -69 23 -138 27 -155 l6 -30 -25 30 c-13 17 -87 125 -165 240 -335 502 -415
621 -425 630 -5 6 0 -15 12 -45 12 -30 32 -84 45 -120 31 -90 249 -679 285
-770 16 -41 28 -76 26 -78 -2 -2 -135 129 -295 290 l-291 293 185 -368 c103
-203 184 -371 182 -373 -2 -3 -149 104 -327 236 -177 133 -323 240 -325 238
-2 -2 32 -52 76 -113 43 -60 105 -148 138 -195 33 -47 103 -146 155 -219 53
-74 94 -136 92 -138 -2 -2 -99 52 -217 120 -401 232 -663 382 -672 386 -5 2
82 -86 194 -195 112 -110 277 -271 367 -359 90 -88 159 -161 154 -163 -5 -1
-34 7 -63 18 -30 12 -148 55 -264 95 -115 41 -262 92 -325 115 -63 23 -108 35
-100 27 8 -8 148 -116 312 -241 281 -215 345 -268 308 -254 -31 11 -822 209
-825 206 -2 -2 60 -41 138 -88 535 -318 608 -364 595 -371 -7 -5 -197 -9 -423
-10 l-410 -1 60 -20 c33 -10 80 -25 105 -33 149 -43 607 -188 620 -196 11 -6
9 -8 -11 -9 -14 0 -126 -7 -250 -15 -123 -8 -381 -24 -574 -35 -192 -12 -351
-23 -353 -25 -2 -2 21 -6 50 -10 135 -18 1130 -174 1134 -178 2 -2 -175 -64
-393 -137 -219 -73 -400 -134 -401 -136 -2 -1 182 0 410 3 227 3 411 3 408 0
-3 -3 -70 -33 -150 -68 -80 -34 -332 -142 -560 -240 -228 -99 -411 -179 -406
-179 5 0 215 41 466 90 251 50 464 90 473 90 12 0 4 -20 -32 -80 -46 -76 -54
-84 -142 -138 -192 -117 -269 -165 -266 -168 1 -2 58 11 125 28 68 17 125 28
128 25 4 -3 -57 -115 -135 -249 l-140 -243 299 -3 c165 -1 300 -5 300 -8 0 -3
-38 -49 -85 -103 -47 -54 -85 -101 -85 -103 0 -3 82 44 182 103 l183 109 82 0
c48 0 83 -4 83 -10 0 -5 -73 -101 -162 -212 -89 -112 -213 -268 -277 -348 -63
-80 -124 -156 -135 -169 -12 -13 -16 -22 -9 -20 6 2 169 134 361 293 l350 290
7 59 c3 32 5 61 3 63 -2 2 -21 -10 -42 -27 -20 -17 -39 -30 -41 -28 -2 3 14
31 36 64 l40 59 -11 106 c-6 58 -13 115 -16 128 l-4 22 -296 0 -295 0 32 58
c18 31 107 185 197 342 151 262 225 390 427 740 278 482 401 694 727 1260 97
168 219 379 272 470 53 91 137 238 188 327 51 90 98 163 104 163 6 0 16 -12
23 -26 6 -15 42 -79 80 -143 37 -64 105 -181 151 -261 46 -80 104 -181 130
-225 82 -140 441 -762 595 -1030 181 -314 369 -642 435 -755 94 -162 207 -358
296 -513 43 -72 112 -193 155 -267 l78 -135 -195 -3 c-107 -1 -194 -6 -194
-10 0 -4 -9 -80 -19 -168 -21 -169 -17 -273 11 -300 24 -23 263 -202 266 -199
2 1 -58 88 -132 193 -75 104 -136 195 -136 201 0 8 48 11 155 11 l156 0 77
-44 c42 -24 93 -51 112 -61 34 -17 33 -15 -17 37 -29 29 -53 57 -53 61 0 3 99
8 219 9 l220 3 -33 55 c-18 30 -70 120 -116 200 -116 201 -141 246 -184 318
-21 35 -36 66 -33 69 3 3 100 -10 216 -29 115 -19 208 -31 205 -27 -2 4 -48
31 -102 59 -53 29 -122 67 -152 85 -30 17 -119 67 -197 109 -112 62 -144 84
-154 107 -6 16 -10 31 -8 33 2 1 144 -8 314 -21 171 -12 323 -22 339 -21 21 2
-46 31 -225 97 -478 178 -506 189 -479 195 14 3 242 20 508 38 265 18 482 36
482 39 0 3 -93 22 -207 42 -531 94 -783 141 -783 146 0 4 154 46 343 94 188
49 367 96 397 105 l55 16 -130 8 c-521 29 -700 40 -703 43 -1 1 231 89 517
196 286 107 518 196 516 198 -2 2 -59 -4 -127 -13 -68 -9 -301 -39 -518 -66
-217 -28 -408 -53 -425 -56 -65 -12 -17 11 675 328 58 26 103 48 100 48 -3 0
-174 -25 -380 -55 -501 -74 -521 -77 -525 -73 -2 2 158 125 355 273 198 148
358 270 357 272 -3 2 -95 -31 -332 -122 -407 -155 -510 -193 -514 -189 -3 3
158 168 357 367 397 397 388 388 352 365 -31 -19 -477 -288 -585 -352 -44 -27
-128 -77 -186 -112 -59 -35 -109 -64 -113 -64 -7 0 28 57 261 422 89 141 163
259 163 263 0 8 2 10 -340 -273 -155 -129 -283 -232 -286 -229 -2 2 9 33 25
68 30 64 247 555 283 639 l19 45 -24 -25 c-13 -14 -84 -92 -158 -175 -73 -82
-136 -152 -139 -155 -3 -3 -56 -62 -119 -133 -63 -70 -115 -126 -117 -125 -1
2 15 66 36 143 49 178 167 608 175 638 7 22 -51 -63 -314 -463 -77 -118 -141
-206 -141 -195 0 11 20 193 45 404 25 211 44 386 42 388 -2 2 -57 -113 -122
-254 -64 -142 -121 -264 -125 -272 -5 -9 -25 17 -61 80 l-54 94 -7 214 c-4
117 -9 215 -11 217 -2 3 -21 -50 -42 -116 -21 -66 -43 -119 -49 -117 -5 2 -30
39 -55 84 -123 216 -173 303 -176 303 -1 0 -65 -108 -141 -239z m682 -561
l-12 -105 -22 35 c-12 19 -22 41 -22 49 0 13 62 132 67 128 1 -2 -4 -50 -11
-107z m-1106 -159 c0 -14 -60 -124 -65 -119 -2 2 -15 71 -29 153 -14 83 -29
164 -32 180 -3 18 20 -15 60 -85 36 -63 66 -121 66 -129z m1371 -3 c-22 -79
-48 -173 -57 -210 -9 -38 -19 -68 -23 -68 -9 0 -73 105 -75 123 -1 13 186 308
192 302 2 -2 -15 -68 -37 -147z m-1685 -24 c139 -191 164 -227 164 -239 0 -20
-88 -157 -94 -147 -3 6 -43 122 -87 259 -45 136 -83 251 -86 256 -2 4 -2 7 0
7 3 0 49 -61 103 -136z m1952 -86 c-57 -128 -103 -235 -155 -356 -20 -46 -39
-80 -43 -75 -5 4 -28 42 -53 83 -44 72 -45 76 -28 95 100 115 324 365 326 365
2 0 -19 -51 -47 -112z m-1986 -280 l80 -87 -50 -83 c-46 -78 -340 -587 -372
-645 -15 -27 -35 -62 -154 -265 -32 -54 -61 -98 -65 -98 -7 0 -540 196 -581
214 -15 6 158 2 480 -10 104 -5 152 -3 145 4 -9 9 -272 156 -450 252 -128 68
-127 69 25 39 58 -11 186 -36 285 -55 99 -19 188 -37 198 -40 40 -12 10 18
-99 102 -64 49 -176 136 -251 193 -74 56 -133 105 -130 107 2 2 39 -10 83 -27
43 -17 149 -55 234 -84 85 -30 186 -65 223 -79 38 -13 67 -21 65 -15 -2 5 -80
89 -173 186 -94 98 -195 205 -225 237 -51 55 -52 58 -20 39 46 -27 228 -126
360 -195 58 -31 122 -65 144 -77 21 -12 40 -20 43 -17 3 2 -39 67 -93 143
-194 274 -260 368 -268 381 -4 7 66 -42 156 -109 89 -67 183 -136 207 -153 24
-17 68 -51 98 -75 30 -24 57 -41 59 -38 3 3 -60 134 -140 292 -80 157 -146
289 -146 293 0 9 232 -222 332 -330z m2111 -73 c-96 -152 -174 -277 -172 -280
2 -2 117 64 254 147 138 82 266 159 285 171 l35 20 -26 -29 c-24 -26 -245
-280 -361 -415 -26 -29 -44 -55 -39 -57 7 -2 239 91 496 200 39 16 77 32 85
35 22 7 -19 -30 -263 -236 -119 -102 -215 -187 -213 -189 3 -2 143 31 312 72
169 42 309 74 311 72 3 -2 -6 -10 -19 -17 -12 -6 -45 -26 -73 -44 -27 -17
-129 -81 -225 -140 -96 -60 -186 -117 -199 -127 l-24 -18 23 0 c28 0 553 48
595 55 50 7 16 -10 -275 -135 -266 -115 -275 -118 -290 -99 -8 10 -57 92 -109
181 -52 90 -109 188 -126 218 -89 151 -254 439 -270 469 -12 24 -14 36 -5 41
15 9 238 193 359 297 53 45 99 82 103 82 4 1 -72 -123 -169 -274z m577 -1070
c135 -8 259 -15 275 -16 25 -1 21 -3 -20 -14 -27 -7 -129 -34 -225 -60 -213
-57 -242 -64 -257 -65 -12 0 -31 27 -86 123 l-28 47 48 0 c26 0 158 -7 293
-15z m-3260 -63 c0 -6 -85 -157 -95 -170 -2 -2 -81 13 -176 33 -96 20 -211 43
-256 52 -46 8 -83 19 -83 22 0 4 127 21 283 38 329 35 327 35 327 25z m3322
-217 c131 -27 236 -50 234 -52 -3 -4 -361 -43 -390 -43 -13 0 -28 12 -40 33
-61 104 -69 120 -55 115 8 -3 121 -27 251 -53z m-3472 -45 c0 -6 -18 -38 -39
-72 l-39 -61 -73 3 c-41 1 -130 5 -199 9 -146 8 -155 3 140 80 206 54 210 55
210 41z m3545 -270 c142 -54 140 -58 -27 -44 -73 7 -74 7 -96 45 -24 41 -26
49 -14 49 4 0 66 -23 137 -50z m-3735 -65 c0 -3 -10 -20 -22 -39 -21 -33 -25
-34 -106 -40 -46 -4 -86 -6 -87 -4 -5 4 186 86 203 87 6 1 12 -1 12 -4z"/>
<path d="M3087 4130 c-250 -18 -322 -37 -438 -111 -158 -101 -252 -238 -273
-395 -5 -34 9 -169 44 -444 57 -450 56 -441 82 -495 50 -98 127 -160 234 -184
50 -12 50 -12 61 -64 21 -97 54 -168 99 -214 24 -23 50 -43 59 -43 24 0 18
-17 -22 -62 l-38 -41 48 5 c26 3 47 2 47 -3 0 -16 27 -9 45 11 23 26 35 25 35
0 0 -20 5 -21 118 -18 l117 3 3 71 3 72 45 7 c38 5 47 11 64 44 20 40 38 132
42 215 3 48 3 49 51 67 188 74 308 226 309 392 0 44 -36 295 -127 889 -8 53
-21 112 -28 131 -19 44 -72 104 -111 124 -83 43 -254 58 -469 43z m208 -75
c18 -19 41 -57 50 -85 12 -37 22 -50 36 -50 29 0 24 45 -11 109 -17 30 -30 56
-30 58 0 2 12 0 28 -3 47 -11 79 -52 106 -136 7 -22 35 -23 43 -3 3 9 -2 36
-12 61 -19 49 -16 59 12 50 49 -16 133 -135 120 -170 -4 -9 -39 -15 -109 -20
-156 -11 -334 -35 -416 -56 -68 -17 -74 -17 -79 -2 -13 44 -74 160 -92 176
-10 10 -45 28 -76 41 l-57 23 66 11 c84 15 133 3 186 -45 21 -19 46 -55 56
-80 17 -44 40 -57 50 -29 10 25 -15 81 -57 129 l-41 46 35 0 c56 0 115 -64
141 -152 7 -22 35 -23 43 -2 7 18 -33 107 -59 131 -25 23 -23 33 8 33 17 0 38
-12 59 -35z m-425 -55 c85 -43 152 -178 194 -390 41 -202 87 -568 84 -670 0
-36 -3 -53 -5 -37 -2 15 -6 27 -7 27 -2 0 -23 -7 -47 -16 -63 -23 -129 -43
-129 -39 0 2 38 24 85 50 76 41 85 49 79 68 -3 12 -8 24 -10 25 -1 2 -35 -8
-75 -22 -40 -14 -75 -26 -78 -26 -12 1 36 33 92 61 51 26 57 33 51 52 -10 32
-10 32 -67 12 -28 -10 -59 -20 -67 -22 -25 -8 21 27 73 53 43 22 47 27 41 52
-4 15 -8 28 -9 29 -1 2 -35 -8 -75 -22 -40 -14 -76 -25 -79 -25 -3 0 28 20 69
45 68 40 75 47 72 72 -2 16 -5 29 -6 30 -2 2 -35 -8 -74 -21 -40 -14 -72 -23
-72 -22 0 2 31 22 69 45 61 36 68 43 64 66 -6 30 -13 31 -88 5 -32 -11 -60
-18 -62 -16 -2 2 27 21 64 41 64 34 69 39 65 66 -5 34 -11 35 -86 9 -70 -24
-64 -11 14 31 54 29 59 34 53 58 -3 14 -8 28 -10 31 -2 2 -32 -5 -66 -17 -34
-12 -63 -21 -64 -19 -1 1 27 19 62 40 59 35 64 40 59 64 -10 42 -11 42 -71 21
-82 -28 -86 -23 -15 18 34 21 62 42 62 48 0 6 -18 48 -39 92 -45 93 -91 133
-151 133 -41 0 -129 -39 -172 -75 -52 -44 -46 -15 7 31 94 83 184 105 265 64z
m780 -215 c0 -12 -14 -15 -65 -15 -51 0 -65 3 -65 15 0 12 14 15 65 15 51 0
65 -3 65 -15z m-225 -15 c0 -11 -25 -18 -105 -27 -58 -7 -139 -21 -180 -32
-47 -13 -78 -17 -84 -11 -15 15 2 25 74 44 66 17 253 46 280 42 8 -1 15 -8 15
-16z m-751 -181 c40 -186 92 -512 111 -704 3 -33 8 -71 11 -85 3 -18 2 -21 -5
-10 -20 33 -95 455 -125 705 -9 72 -19 150 -22 175 -10 78 5 38 30 -81z m992
92 c-4 -6 -34 -11 -67 -11 -45 0 -59 3 -59 15 0 10 15 15 58 17 60 3 79 -3 68
-21z m-226 -11 c0 -16 -7 -20 -37 -20 -47 0 -200 -25 -270 -44 -49 -13 -53
-13 -53 3 0 14 17 22 73 36 57 14 201 37 275 44 6 0 12 -8 12 -19z m-807 -185
c37 -185 65 -366 92 -585 18 -148 18 -174 -1 -100 -52 208 -155 896 -130 869
2 -2 20 -85 39 -184z m1047 105 c0 -18 -7 -20 -66 -20 -82 0 -84 22 -3 31 30
3 57 6 62 7 4 1 7 -7 7 -18z m-222 -18 c5 -15 -3 -17 -125 -31 -56 -7 -131
-20 -167 -30 -62 -17 -66 -17 -66 -1 0 20 94 46 240 65 106 14 112 14 118 -3z
m-983 -31 c32 10 61 17 62 15 2 -2 -24 -15 -57 -30 -56 -25 -60 -29 -54 -54 4
-15 8 -28 9 -30 1 -1 28 7 60 18 32 11 60 18 62 16 2 -2 -24 -15 -57 -29 -60
-26 -72 -43 -51 -75 7 -11 17 -11 56 2 64 22 67 15 5 -14 -45 -21 -50 -27 -50
-57 0 -31 2 -33 28 -27 15 4 38 11 51 16 44 16 31 2 -19 -22 -48 -23 -50 -25
-44 -54 3 -17 8 -33 10 -35 1 -2 24 4 50 13 64 21 65 15 4 -14 -47 -22 -50
-26 -50 -62 0 -21 1 -38 3 -38 1 0 24 7 51 15 27 8 51 14 53 12 1 -2 -20 -14
-48 -27 -47 -23 -50 -26 -45 -54 4 -16 8 -31 9 -33 2 -2 26 4 53 12 68 20 68
19 1 -16 -54 -28 -58 -32 -52 -57 4 -15 8 -29 10 -30 2 -2 27 4 55 13 72 24
72 13 0 -16 -60 -24 -67 -32 -51 -57 7 -11 17 -11 60 2 28 8 51 13 51 10 0 -2
-25 -15 -55 -29 -43 -19 -55 -29 -55 -46 0 -44 -9 -12 -39 136 -34 171 -54
298 -76 470 -15 123 -19 217 -6 164 l6 -27 60 19z m1220 -51 c0 -11 -15 -16
-62 -18 -51 -2 -63 0 -63 12 0 10 13 16 43 19 65 6 82 3 82 -13z m-225 -19 c0
-16 -11 -19 -89 -25 -50 -4 -123 -15 -163 -26 -88 -24 -98 -24 -98 -5 0 8 16
19 38 25 39 11 193 37 252 43 19 2 41 5 48 5 6 1 12 -6 12 -17z m240 -81 c0
-18 -7 -20 -66 -20 -77 0 -86 21 -13 31 77 10 79 10 79 -11z m-224 -11 c11
-18 -12 -26 -94 -33 -66 -6 -107 -14 -239 -43 -16 -4 -23 -1 -23 10 0 18 93
43 225 62 119 17 123 17 131 4z m240 -80 c11 -18 -17 -29 -73 -29 -40 0 -53 4
-53 14 0 10 14 16 43 19 23 2 50 4 59 5 9 1 20 -3 24 -9z m-226 -28 c0 -16
-11 -19 -82 -25 -74 -5 -157 -20 -240 -41 -46 -12 -36 22 10 35 56 16 204 40
295 48 10 1 17 -5 17 -17z m240 -79 c0 -16 -9 -19 -60 -21 -47 -2 -60 1 -60
13 0 14 18 18 98 24 15 1 22 -3 22 -16z m-220 -17 c0 -17 -10 -19 -135 -34
-49 -6 -116 -18 -148 -26 -56 -14 -77 -13 -77 4 0 12 119 42 223 56 127 17
137 17 137 0z m240 -79 c0 -17 -31 -26 -87 -26 -56 0 -61 27 -5 33 79 8 92 7
92 -7z m-230 -21 c0 -17 -17 -21 -110 -30 -36 -3 -102 -15 -148 -26 -100 -23
-92 -22 -92 -5 0 8 8 17 18 20 70 20 119 30 197 41 123 18 135 18 135 0z m240
-80 c0 -11 -11 -15 -37 -15 -21 0 -48 -3 -60 -6 -17 -5 -23 -2 -23 9 0 10 12
17 33 20 71 9 87 7 87 -8z m-220 -19 c0 -9 -30 -17 -107 -26 -93 -11 -169 -26
-235 -46 -11 -3 -18 0 -18 9 0 16 40 29 155 51 140 27 205 31 205 12z m215
-103 c-10 -55 -19 -63 -25 -23 -4 27 -10 35 -25 35 -17 0 -21 -8 -25 -55 -6
-52 -29 -110 -64 -155 -22 -29 -19 -8 6 44 15 30 23 65 23 101 0 48 -2 55 -20
55 -17 0 -21 -9 -26 -55 -6 -58 -25 -103 -66 -157 -39 -53 -44 -38 -11 29 37
73 48 147 25 167 -23 18 -37 5 -37 -34 0 -45 -31 -127 -65 -171 -40 -53 -47
-40 -15 29 38 78 43 167 10 167 -16 0 -20 -7 -20 -35 0 -42 -33 -129 -66 -172
-40 -53 -43 -38 -7 34 27 53 33 77 31 113 -3 37 -6 45 -23 45 -17 0 -21 -8
-25 -50 -6 -52 -26 -98 -68 -152 -41 -54 -54 -39 -16 18 40 59 47 81 42 135
-2 31 -7 39 -23 39 -17 0 -21 -9 -26 -51 -7 -56 -19 -84 -57 -129 -34 -42 -72
-65 -106 -65 l-29 0 41 44 c49 54 69 90 83 155 10 50 12 51 61 66 80 23 355
60 487 64 l43 1 -7 -37z m-689 -161 c-23 -45 -111 -118 -163 -136 -59 -20
-166 -21 -224 -1 -49 17 -113 64 -131 98 -7 14 5 8 34 -18 131 -115 343 -96
452 41 45 56 55 61 32 16z m332 -283 c-6 -97 -31 -153 -72 -157 -24 -3 -28 -1
-21 15 8 21 26 174 20 182 -2 3 -32 4 -66 1 l-64 -5 -12 -86 c-18 -127 -23
-136 -77 -140 l-45 -4 6 55 c3 31 0 96 -6 144 -7 49 -10 90 -9 92 2 2 78 12
169 22 l164 18 9 -31 c4 -16 6 -64 4 -106z m-419 7 c19 -22 33 -120 22 -150
-16 -40 -65 -37 -91 7 -22 35 -27 106 -10 138 13 22 62 26 79 5z"/>
<path d="M2972 3980 c34 -45 67 -118 68 -149 0 -18 4 -22 18 -16 72 27 239 55
452 75 80 7 65 8 -95 5 -155 -2 -204 -6 -269 -24 -44 -11 -80 -21 -81 -21 -1
0 -11 21 -23 48 -23 49 -44 77 -77 102 -13 10 -11 4 7 -20z"/>
<path d="M2941 2407 c-21 -55 23 -148 50 -106 17 27 10 77 -15 106 l-24 28
-11 -28z"/>
<path d="M1660 2730 c0 -5 4 -10 9 -10 6 0 13 5 16 10 3 6 -1 10 -9 10 -9 0
-16 -4 -16 -10z"/>
<path d="M4410 2604 c1 -5 30 -31 66 -59 36 -27 107 -82 157 -122 51 -39 93
-70 95 -68 4 3 -80 153 -109 196 -15 21 -31 28 -91 38 -40 7 -83 15 -95 18
-13 3 -23 1 -23 -3z"/>
<path d="M1627 2511 c-59 -16 -109 -30 -111 -32 -1 -2 -14 -25 -29 -51 -22
-41 -23 -48 -9 -48 12 -1 7 -10 -19 -33 -32 -28 -126 -174 -117 -181 1 -2 84
66 183 151 99 85 198 170 220 189 38 32 39 34 15 33 -14 0 -74 -13 -133 -28z"/>
<path d="M4312 2396 c171 -179 198 -203 228 -198 59 8 120 -39 120 -93 0 -11
10 -15 37 -15 l37 0 -64 65 c-35 35 -62 67 -59 70 3 3 55 -13 115 -35 60 -22
113 -40 117 -40 5 0 -4 22 -19 48 -23 41 -35 51 -78 66 -28 10 -132 47 -231
82 -185 66 -228 76 -203 50z"/>
<path d="M1725 2293 c-71 -30 -191 -79 -265 -110 -195 -79 -205 -93 -72 -93
78 0 97 4 170 35 82 34 89 32 49 -12 l-20 -23 40 0 c39 0 44 4 138 113 143
164 131 147 109 146 -10 -1 -77 -26 -149 -56z"/>
<path d="M4172 2233 c2 -5 14 -25 28 -46 24 -36 26 -37 70 -31 25 4 47 8 49
10 3 3 -134 74 -145 74 -3 0 -4 -3 -2 -7z"/>
<path d="M2005 2180 c-3 -5 1 -10 9 -10 9 0 16 5 16 10 0 6 -4 10 -9 10 -6 0
-13 -4 -16 -10z"/>
<path d="M1810 2173 c-33 -12 -50 -37 -50 -72 0 -20 10 -123 22 -229 l22 -194
-23 -191 c-27 -228 -26 -256 11 -276 24 -14 40 -14 150 2 374 55 787 96 1138
113 243 11 810 -33 1292 -102 98 -14 189 -24 204 -22 15 2 35 14 46 28 18 25
18 30 -7 240 l-26 215 25 215 c23 194 24 217 10 238 -24 37 -54 43 -145 27
-291 -51 -852 -105 -1179 -112 -353 -8 -905 35 -1325 103 -135 21 -149 23
-165 17z m180 -103 c162 -25 505 -63 775 -86 232 -20 593 -22 805 -5 250 20
628 61 804 86 93 14 171 23 174 21 2 -3 -6 -96 -19 -207 l-23 -201 24 -194
c12 -107 21 -196 19 -198 -2 -2 -29 0 -59 5 -338 56 -1033 119 -1300 119 -237
0 -846 -54 -1185 -105 -88 -13 -161 -22 -163 -21 -1 2 8 93 22 202 l24 199
-24 195 c-13 107 -24 198 -24 203 0 10 -1 10 150 -13z"/>
<path d="M4362 1963 c-32 -46 -51 -88 -62 -138 -9 -41 -8 -57 11 -114 12 -36
30 -82 40 -101 24 -50 34 -106 19 -115 -17 -11 -30 14 -30 56 0 31 -4 37 -25
41 -23 5 -25 2 -25 -32 0 -78 47 -160 91 -160 10 0 26 11 35 25 24 37 13 120
-32 235 -30 80 -35 104 -32 152 4 56 20 90 35 75 3 -4 2 -27 -4 -52 -10 -43
-9 -45 13 -45 19 0 26 9 39 52 18 62 19 89 3 123 -15 34 -51 33 -76 -2z"/>
<path d="M1962 1953 c-14 -29 -7 -520 8 -538 20 -24 56 -18 84 15 29 35 36 67
39 160 2 59 0 65 -18 65 -18 0 -21 -10 -30 -82 -5 -45 -16 -88 -22 -95 -7 -6
-13 -10 -13 -7 -7 178 -5 439 4 436 6 -2 15 -36 20 -75 8 -67 10 -72 33 -72
25 0 25 1 18 63 -8 70 -19 104 -42 129 -21 23 -70 23 -81 1z"/>
<path d="M2114 1935 c-15 -23 -15 -36 -5 -114 7 -48 11 -151 10 -228 -3 -151
2 -173 46 -173 32 0 73 42 81 85 9 52 -2 332 -16 377 -12 40 -51 78 -81 78
-10 0 -26 -11 -35 -25z m65 -53 c15 -29 32 -240 25 -314 -6 -60 -17 -89 -29
-76 -3 2 -6 76 -9 164 -2 87 -8 178 -12 202 -7 44 7 58 25 24z"/>
<path d="M4256 1948 c-2 -7 -15 -60 -30 -118 l-26 -105 6 113 6 112 -24 0
c-22 0 -26 -6 -37 -67 -17 -89 -26 -292 -17 -376 7 -63 9 -67 32 -67 19 0 24
4 20 18 -3 9 -7 60 -10 112 l-6 95 31 -117 c29 -110 33 -118 56 -118 20 0 23
4 18 21 -13 41 -7 323 9 409 9 47 16 88 16 93 0 12 -40 8 -44 -5z"/>
<path d="M2254 1888 c14 -101 23 -296 18 -373 l-5 -77 24 7 c13 4 26 9 29 12
2 2 7 68 9 146 5 160 16 146 27 -36 7 -102 8 -108 28 -105 24 3 40 60 55 188
8 74 8 73 10 -52 l1 -128 25 0 25 0 0 118 c0 108 -14 275 -26 313 -3 10 -18
18 -39 21 l-35 4 -1 -121 0 -120 -38 125 -38 125 -38 3 -38 3 7 -53z"/>
<path d="M4058 1932 c-23 -3 -30 -11 -39 -45 -25 -92 -47 -227 -54 -324 l-7
-103 26 0 c24 0 26 3 26 45 0 41 2 45 24 45 21 0 24 -6 30 -49 5 -42 10 -49
31 -53 14 -3 25 -4 25 -3 0 1 -7 51 -15 111 -9 61 -15 168 -14 242 0 73 0 134
-2 135 -2 1 -16 1 -31 -1z m-15 -324 c-2 -4 -10 -5 -18 -1 -16 6 -20 66 -8
124 6 30 8 26 18 -41 6 -41 9 -78 8 -82z"/>
<path d="M2504 1882 c13 -81 28 -275 24 -337 -3 -65 -3 -66 22 -63 25 3 25 4
30 128 l5 125 12 -75 c7 -41 15 -96 19 -122 5 -37 10 -48 24 -48 22 0 39 68
49 195 l7 80 8 -59 c5 -32 6 -92 3 -132 -7 -75 -2 -89 28 -77 16 6 17 21 12
167 -4 89 -10 177 -14 196 -8 31 -13 35 -46 38 l-37 3 -1 -108 0 -108 -36 110
c-19 61 -36 110 -37 111 0 1 -18 4 -40 7 l-38 6 6 -37z"/>
<path d="M3905 1903 c-4 -10 -10 -111 -13 -225 l-4 -208 25 0 25 0 5 198 c3
108 9 209 12 225 7 24 5 27 -18 27 -14 0 -28 -7 -32 -17z"/>
<path d="M3774 1903 c-23 -3 -34 -11 -38 -26 -3 -12 -6 -104 -6 -203 l0 -181
40 -7 c78 -12 96 17 87 143 -3 42 -1 112 5 155 l10 80 -26 23 c-15 13 -30 22
-34 21 -4 0 -21 -3 -38 -5z m33 -210 c-1 -97 -6 -148 -13 -150 -15 -5 -24 52
-24 147 0 97 9 150 26 150 10 0 12 -32 11 -147z"/>
<path d="M3643 1893 l-52 -4 -7 -67 c-6 -59 0 -310 8 -317 2 -1 29 -5 61 -9
l58 -6 -3 27 c-2 23 -8 29 -35 31 -30 3 -32 5 -38 57 -8 60 -3 75 26 75 12 0
19 7 19 20 0 15 -7 20 -25 20 -22 0 -25 4 -25 33 0 51 11 77 30 77 36 0 50 12
50 41 0 16 -3 28 -7 27 -5 -1 -31 -3 -60 -5z"/>
<path d="M2800 1883 c-3 -76 -21 -323 -26 -349 -6 -32 -4 -34 20 -34 23 0 26
4 26 34 0 22 6 36 16 40 27 11 33 7 36 -26 2 -26 8 -34 27 -36 l24 -4 -7 78
c-6 69 -37 240 -52 287 -3 11 -15 17 -35 17 -16 0 -29 -3 -29 -7z m62 -216 c2
-29 -1 -42 -9 -42 -7 0 -13 3 -13 8 0 105 2 130 10 104 5 -15 10 -46 12 -70z"/>
<path d="M3026 1858 c-12 -19 -13 -51 -9 -167 7 -157 16 -181 68 -181 41 0 65
36 65 97 0 50 -1 53 -25 53 -23 0 -25 -3 -25 -50 0 -38 -4 -50 -15 -50 -12 0
-15 16 -15 83 0 45 -3 106 -6 135 -6 48 -5 52 15 52 19 0 21 -6 21 -50 0 -47
2 -50 25 -50 24 0 25 3 25 53 0 43 -5 58 -23 75 -31 30 -82 29 -101 0z"/>
<path d="M3200 1860 c-18 -18 -20 -33 -20 -165 0 -132 2 -147 20 -165 26 -26
51 -25 84 1 26 20 26 21 26 164 0 143 0 144 -26 164 -33 26 -58 27 -84 1z m60
-165 c0 -113 -2 -135 -15 -135 -13 0 -15 22 -15 135 0 113 2 135 15 135 13 0
15 -22 15 -135z"/>
<path d="M3347 1873 c-18 -5 -19 -16 -15 -174 2 -137 6 -172 18 -179 31 -20
35 -4 31 111 -2 63 -1 112 2 109 4 -4 47 -209 47 -226 0 -2 9 -4 20 -4 11 0
20 6 20 13 0 28 29 199 34 204 3 4 6 -44 6 -105 l0 -112 25 0 25 0 0 185 0
185 -40 0 c-35 0 -40 -3 -40 -22 -1 -13 -9 -57 -19 -98 l-18 -75 -13 75 c-22
122 -26 128 -83 113z"/>
<path d="M3128 1302 l-28 -3 0 -105 c0 -141 -19 -138 -22 4 l-2 107 -5 -109
-6 -108 -92 -23 c-113 -29 -169 -53 -215 -94 -46 -40 -68 -87 -68 -145 0 -39
-4 -48 -22 -57 -22 -9 -22 -9 2 -4 14 3 49 11 78 17 30 6 48 14 41 18 -18 12
7 75 42 104 30 26 128 61 200 72 l39 7 0 -76 0 -76 -37 -7 c-21 -4 -53 -7 -70
-7 -18 1 -31 -2 -28 -7 2 -4 -19 -10 -48 -14 -28 -3 -107 -19 -174 -36 -67
-16 -130 -27 -139 -23 -10 3 -15 2 -12 -3 4 -5 -4 -10 -17 -10 -34 -2 -134
-71 -145 -100 -14 -36 -12 -175 3 -201 41 -73 218 -144 449 -180 141 -22 545
-25 683 -5 132 19 308 67 373 102 110 60 122 77 122 187 0 78 -2 84 -32 118
-78 89 -300 155 -605 180 l-83 7 0 102 0 102 53 17 c118 37 197 116 197 197 0
38 -2 40 -30 40 -24 0 -30 -4 -30 -22 -1 -49 -37 -105 -85 -134 -70 -41 -107
-51 -307 -84 -184 -30 -287 -58 -323 -89 -36 -29 -65 -73 -65 -99 0 -14 -3
-23 -6 -19 -15 15 9 80 43 113 58 59 141 86 378 124 154 24 244 52 287 88 32
27 59 78 57 109 0 10 -7 0 -15 -21 -8 -21 -19 -45 -26 -53 -16 -20 -107 -65
-120 -61 -7 3 -10 31 -9 75 1 39 -1 73 -6 76 -4 3 -32 8 -60 12 l-53 7 0 -100
c0 -57 -4 -104 -10 -107 -6 -4 -10 30 -10 94 0 55 -3 101 -7 103 -5 2 -20 2
-35 0z m53 -472 l-8 -165 -2 175 c0 112 2 171 9 164 6 -6 6 -70 1 -174z m-82
-37 l-4 -197 55 -13 55 -12 -55 6 c-30 3 -58 7 -62 10 -13 7 -10 403 3 403 9
0 11 -55 8 -197z m154 -210 c-7 -2 -19 -2 -25 0 -7 3 -2 5 12 5 14 0 19 -2 13
-5z m707 -47 c0 -10 -188 -78 -277 -100 -146 -36 -258 -48 -453 -48 -193 1
-357 19 -520 58 -108 25 -234 64 -228 69 2 2 48 -8 103 -21 134 -33 371 -62
563 -70 261 -10 523 21 712 85 91 31 100 33 100 27z"/>
<path d="M2900 1291 c-34 -6 -35 -7 -60 -96 l-25 -90 -5 90 c-4 63 -9 90 -17
89 -53 -4 -50 5 -57 -135 -4 -72 -5 -133 -3 -135 3 -3 28 9 56 25 28 17 62 33
76 37 20 5 29 21 56 102 18 54 34 103 37 110 4 13 -2 13 -58 3z"/>
<path d="M3350 1251 c0 -54 5 -59 35 -37 16 11 17 19 9 47 -5 19 -17 35 -27
37 -14 3 -17 -5 -17 -47z"/>
<path d="M2601 1270 c-53 -5 -54 -5 -77 -55 l-22 -50 5 48 c6 47 5 49 -18 45
-24 -3 -24 -5 -40 -203 -10 -110 -20 -233 -23 -272 -9 -99 9 -90 56 30 21 51
69 171 108 267 39 96 69 180 68 185 -2 6 -25 8 -57 5z"/>
<path d="M3731 1103 c183 -353 189 -364 189 -332 0 7 -18 118 -40 244 -22 127
-40 236 -40 243 0 8 -17 12 -51 12 l-51 0 7 -30 c9 -40 1 -38 -19 5 -15 30
-22 35 -52 35 l-35 0 92 -177z"/>
<path d="M4010 1245 c0 -5 254 -381 342 -505 17 -24 -19 87 -117 357 l-48 131
-71 7 c-39 3 -79 9 -88 11 -10 3 -18 2 -18 -1z"/>
<path d="M2205 1228 c-44 -5 -83 -13 -87 -17 -6 -5 -151 -457 -183 -571 -6
-22 18 16 160 250 48 80 112 183 141 230 57 92 71 121 58 119 -5 -1 -45 -6
-89 -11z"/>
<path d="M1726 1118 c-21 -46 -41 -90 -44 -98 -3 -8 26 22 66 66 40 45 72 85
72 88 0 3 -8 6 -18 6 -10 0 -23 5 -28 10 -8 8 -22 -15 -48 -72z"/>
<path d="M4590 1178 c-14 -5 -33 -7 -43 -4 -18 4 -18 4 0 -16 24 -28 196 -198
200 -198 2 0 -126 222 -131 226 0 1 -12 -3 -26 -8z"/>
<path d="M3477 1061 c-66 -39 -66 -39 -27 -143 18 -48 25 -56 52 -62 18 -3 36
-2 40 2 5 5 5 60 1 123 l-8 114 -58 -34z"/>
</g>
</svg>
